<svg id="Layer_1" data-name="Layer 1" xmlns="http://www.w3.org/2000/svg" viewBox="0 0 94 93.74"><defs><style>.cls-1{fill:#ef5a70;}.cls-1,.cls-10,.cls-11,.cls-12,.cls-2,.cls-3,.cls-4,.cls-5,.cls-6,.cls-7,.cls-8,.cls-9{fill-rule:evenodd;}.cls-2{fill:#ed1b25;}.cls-3{fill:#faba1c;}.cls-4{fill:#009e4f;}.cls-5{fill:#00aded;}.cls-6{fill:#c6569e;}.cls-7{fill:#fefefe;}.cls-8{fill:#d5d5d7;}.cls-9{fill:#5f5f5f;}.cls-10{fill:#434443;}.cls-11{fill:#22201e;}.cls-12{fill:#babcbe;}</style></defs><path class="cls-1" d="M40.56,4.21,37.42,34,80.35,14.53A47.21,47.21,0,0,0,40.56,4.21Z" transform="translate(-3 -3.29)"/><path class="cls-2" d="M34.39,5.72c-1.28.47-2.56,1-3.84,1.54A46.86,46.86,0,0,0,5.34,35.47L29.92,53.09Z" transform="translate(-3 -3.29)"/><path class="cls-3" d="M15.11,81.54l27.4-12.43L3.83,41.38A46.28,46.28,0,0,0,3,50.11v0A46.79,46.79,0,0,0,7.19,69.49a47.83,47.83,0,0,0,7.92,12.05Z" transform="translate(-3 -3.29)"/><path class="cls-4" d="M65.18,94.53c1.43-.5,2.87-1,4.26-1.69A46.88,46.88,0,0,0,94.93,63.77l-24.72-17Z" transform="translate(-3 -3.29)"/><path class="cls-5" d="M59.28,96.12l3.16-29.83L19.51,85.81A47.18,47.18,0,0,0,59.28,96.12Z" transform="translate(-3 -3.29)"/><path class="cls-6" d="M96.34,57.86,57.7,31.3,85.13,18.83a47.48,47.48,0,0,1,7.65,11.78,46.66,46.66,0,0,1,3.56,27.25Z" transform="translate(-3 -3.29)"/><path class="cls-7" d="M32.62,24.08C6.85,41.39,19.22,81.5,50,81.5S93.17,41.42,67.38,24.08a31.39,31.39,0,0,0-34.76,0Z" transform="translate(-3 -3.29)"/><path class="cls-8" d="M36.86,30.45C17.38,43.53,26.73,73.85,50,73.85s32.63-30.3,13.13-43.4a23.71,23.71,0,0,0-26.27,0Z" transform="translate(-3 -3.29)"/><path class="cls-9" d="M39.52,34.44C24,44.87,31.43,69.07,50,69.07S76,44.89,60.48,34.44a18.9,18.9,0,0,0-21,0Z" transform="translate(-3 -3.29)"/><path class="cls-10" d="M40.75,36.28C27,45.5,33.62,66.84,50,66.84s23-21.33,9.25-30.56a16.73,16.73,0,0,0-18.5,0Z" transform="translate(-3 -3.29)"/><path class="cls-11" d="M44.87,42.47a9.25,9.25,0,1,0,10.26,0,9.25,9.25,0,0,0-10.26,0Z" transform="translate(-3 -3.29)"/><path class="cls-12" d="M44.16,47.05a4.37,4.37,0,1,1,4.85,0,4.38,4.38,0,0,1-4.85,0Z" transform="translate(-3 -3.29)"/><path class="cls-7" d="M54.14,59.3a2.15,2.15,0,1,1,2.39,0,2.13,2.13,0,0,1-2.39,0Z" transform="translate(-3 -3.29)"/></svg>